<svg version="1.1"
      xmlns="http://www.w3.org/2000/svg"
      xmlns:xlink="http://www.w3.org/1999/xlink"  id="snapshot-42017" width="250" height="250" viewBox="0 0 250 250"><desc>This image was made on Patterninja.com</desc><defs>
<!-- image 81551 -->
<g id="transformed-81551" data-image="81551" transform="translate(152, -13) rotate(347, 47, 47)"><g><svg version="1.1" width="94px" height="94px" viewBox="0 0 94 94"><g id="original-81551"><svg xmlns="http://www.w3.org/2000/svg" fill="none" viewBox="0 0 500 500" xmlns:xlink="http://www.w3.org/1999/xlink" version="1.1" preserveAspectRatio="xMidYMid meet">
  <path d="M0 71.429C0 31.975 31.975 0 71.429 0H428.57C467.969 0 500 31.975 500 71.429V428.57C500 467.969 467.969 500 428.571 500H71.429C31.975 500 0 467.969 0 428.571V71.429z" fill="rgba(255, 219, 206, 1)" stroke="none"/>
</svg>
</g></svg></g></g>
<!-- /image 81551 -->

<!-- image 38992 -->
<g id="transformed-38992" data-image="38992" transform="translate(151.5, 163) rotate(27, 23.5, 20)"><g><svg version="1.1" width="47px" height="40px" viewBox="0 0 47 40"><g id="original-38992"><svg xmlns="http://www.w3.org/2000/svg" fill="none" viewBox="0 0 584 500" xmlns:xlink="http://www.w3.org/1999/xlink" version="1.1" preserveAspectRatio="xMidYMid meet">
  <path d="M238.322 29.948C249.782 11.328 269.968 0 291.716 0c21.749 0 41.934 11.328 52.223 29.948l229.204 374.961c12.893 19.297 13.414 43.45 2.344 63.164A62.538 62.538 0 0 1 520.921 500H62.511a62.54 62.54 0 0 1-54.527-31.927c-11.056-19.714-10.6-43.867 1.185-63.164L238.322 29.948z" fill="rgba(255, 219, 206, 1)" stroke="none"/>
</svg>
</g></svg></g></g>
<!-- /image 38992 -->

<!-- image 27860 -->
<g id="transformed-27860" data-image="27860" transform="translate(38.5, 17.5) rotate(348, 41.5, 41.5)"><g><svg version="1.1" width="83px" height="83px" viewBox="0 0 83 83"><g id="original-27860"><svg xmlns="http://www.w3.org/2000/svg" fill="none" viewBox="0 0 500 500" xmlns:xlink="http://www.w3.org/1999/xlink" version="1.1" preserveAspectRatio="xMidYMid meet">
  <path d="M500 250c0 138.086-111.914 250-250 250S0 388.086 0 250 111.914 0 250 0s250 111.914 250 250z" fill="rgba(255, 219, 206, 1)" stroke="none"/>
</svg>
</g></svg></g></g>
<!-- /image 27860 -->

<!-- image 45763 -->
<g id="transformed-45763" data-image="45763" transform="translate(-17, 116) rotate(15, 55, 47)"><g><svg version="1.1" width="110px" height="94px" viewBox="0 0 110 94"><g id="original-45763"><svg xmlns="http://www.w3.org/2000/svg" fill="none" viewBox="0 0 584 500" xmlns:xlink="http://www.w3.org/1999/xlink" version="1.1" preserveAspectRatio="xMidYMid meet">
  <path d="M238.322 29.948C249.782 11.328 269.968 0 291.716 0c21.749 0 41.934 11.328 52.223 29.948l229.204 374.961c12.893 19.297 13.414 43.45 2.344 63.164A62.538 62.538 0 0 1 520.921 500H62.511a62.54 62.54 0 0 1-54.527-31.927c-11.056-19.714-10.6-43.867 1.185-63.164L238.322 29.948z" fill="rgba(255, 219, 206, 1)" stroke="none"/>
</svg>
</g></svg></g></g>
<!-- /image 45763 -->

<!-- image 32123 -->
<g id="transformed-32123" data-image="32123" transform="translate(126, 111) rotate(339, 20, 20)"><g><svg version="1.1" width="40px" height="40px" viewBox="0 0 40 40"><g id="original-32123"><svg xmlns="http://www.w3.org/2000/svg" fill="none" viewBox="0 0 500 500" xmlns:xlink="http://www.w3.org/1999/xlink" version="1.1" preserveAspectRatio="xMidYMid meet">
  <path d="M0 71.429C0 31.975 31.975 0 71.429 0H428.57C467.969 0 500 31.975 500 71.429V428.57C500 467.969 467.969 500 428.571 500H71.429C31.975 500 0 467.969 0 428.571V71.429z" fill="rgba(255, 219, 206, 1)" stroke="none"/>
</svg>
</g></svg></g></g>
<!-- /image 32123 -->

<!-- image 48501 -->
<g id="transformed-48501" data-image="48501" transform="translate(186, 112) rotate(348, 20, 20)"><g><svg version="1.1" width="40px" height="40px" viewBox="0 0 40 40"><g id="original-48501"><svg xmlns="http://www.w3.org/2000/svg" fill="none" viewBox="0 0 500 500" xmlns:xlink="http://www.w3.org/1999/xlink" version="1.1" preserveAspectRatio="xMidYMid meet">
  <path d="M500 250c0 138.086-111.914 250-250 250S0 388.086 0 250 111.914 0 250 0s250 111.914 250 250z" fill="rgba(255, 219, 206, 1)" stroke="none"/>
</svg>
</g></svg></g></g>
<!-- /image 48501 -->
</defs><rect x="0" y="0" width="250" height="250" fill="rgba(255, 251, 255, 1)"></rect><use xlink:href="#transformed-81551" transform="translate(-250, -250)"></use><use xlink:href="#transformed-81551" transform="translate(0, -250)"></use><use xlink:href="#transformed-81551" transform="translate(250, -250)"></use><use xlink:href="#transformed-81551" transform="translate(-250, 0)"></use><use xlink:href="#transformed-81551" transform="translate(0, 0)"></use><use xlink:href="#transformed-81551" transform="translate(250, 0)"></use><use xlink:href="#transformed-81551" transform="translate(-250, 250)"></use><use xlink:href="#transformed-81551" transform="translate(0, 250)"></use><use xlink:href="#transformed-81551" transform="translate(250, 250)"></use><use xlink:href="#transformed-38992" transform="translate(-250, -250)"></use><use xlink:href="#transformed-38992" transform="translate(0, -250)"></use><use xlink:href="#transformed-38992" transform="translate(250, -250)"></use><use xlink:href="#transformed-38992" transform="translate(-250, 0)"></use><use xlink:href="#transformed-38992" transform="translate(0, 0)"></use><use xlink:href="#transformed-38992" transform="translate(250, 0)"></use><use xlink:href="#transformed-38992" transform="translate(-250, 250)"></use><use xlink:href="#transformed-38992" transform="translate(0, 250)"></use><use xlink:href="#transformed-38992" transform="translate(250, 250)"></use><use xlink:href="#transformed-27860" transform="translate(-250, -250)"></use><use xlink:href="#transformed-27860" transform="translate(0, -250)"></use><use xlink:href="#transformed-27860" transform="translate(250, -250)"></use><use xlink:href="#transformed-27860" transform="translate(-250, 0)"></use><use xlink:href="#transformed-27860" transform="translate(0, 0)"></use><use xlink:href="#transformed-27860" transform="translate(250, 0)"></use><use xlink:href="#transformed-27860" transform="translate(-250, 250)"></use><use xlink:href="#transformed-27860" transform="translate(0, 250)"></use><use xlink:href="#transformed-27860" transform="translate(250, 250)"></use><use xlink:href="#transformed-45763" transform="translate(-250, -250)"></use><use xlink:href="#transformed-45763" transform="translate(0, -250)"></use><use xlink:href="#transformed-45763" transform="translate(250, -250)"></use><use xlink:href="#transformed-45763" transform="translate(-250, 0)"></use><use xlink:href="#transformed-45763" transform="translate(0, 0)"></use><use xlink:href="#transformed-45763" transform="translate(250, 0)"></use><use xlink:href="#transformed-45763" transform="translate(-250, 250)"></use><use xlink:href="#transformed-45763" transform="translate(0, 250)"></use><use xlink:href="#transformed-45763" transform="translate(250, 250)"></use><use xlink:href="#transformed-32123" transform="translate(-250, -250)"></use><use xlink:href="#transformed-32123" transform="translate(0, -250)"></use><use xlink:href="#transformed-32123" transform="translate(250, -250)"></use><use xlink:href="#transformed-32123" transform="translate(-250, 0)"></use><use xlink:href="#transformed-32123" transform="translate(0, 0)"></use><use xlink:href="#transformed-32123" transform="translate(250, 0)"></use><use xlink:href="#transformed-32123" transform="translate(-250, 250)"></use><use xlink:href="#transformed-32123" transform="translate(0, 250)"></use><use xlink:href="#transformed-32123" transform="translate(250, 250)"></use><use xlink:href="#transformed-48501" transform="translate(-250, -250)"></use><use xlink:href="#transformed-48501" transform="translate(0, -250)"></use><use xlink:href="#transformed-48501" transform="translate(250, -250)"></use><use xlink:href="#transformed-48501" transform="translate(-250, 0)"></use><use xlink:href="#transformed-48501" transform="translate(0, 0)"></use><use xlink:href="#transformed-48501" transform="translate(250, 0)"></use><use xlink:href="#transformed-48501" transform="translate(-250, 250)"></use><use xlink:href="#transformed-48501" transform="translate(0, 250)"></use><use xlink:href="#transformed-48501" transform="translate(250, 250)"></use></svg>